# xmcd CD database file
#
# Track frame offsets:
#	150
#	38987
#	47175
#	76462
#	105642
#	128325
#	157667
#	206450
#	234162
#	251137
#	259400
#
# Disc length: 4133 seconds
#
# Revision: 0
# Processed by: cddbd v1.5.1PL0 Copyright (c) Steve Scherf et al.
# Submitted via: CDex 1.51
#
DISCID=8710230b
DTITLE=松岡直也 - THE EARTH BEAMS
DYEAR=1900
DGENRE=Fusion
TTITLE0=THE KING OF NATURE
TTITLE1="ELGON",Virgin Forest(Thumb Piano Solo)
TTITLE2=MOTHER EARTH
TTITLE3=A SWEET SEASON
TTITLE4=FREESIA
TTITLE5=BLESSING OF THE SUN
TTITLE6=JOYFUL HEART
TTITLE7=野生の月
TTITLE8=CRIMSON〜黄昏の彼方に
TTITLE9=SECRET HUNTING(Balafon Solo)
TTITLE10=ZODIAC
EXTD=
EXTT0=
EXTT1=
EXTT2=
EXTT3=
EXTT4=
EXTT5=
EXTT6=
EXTT7=
EXTT8=
EXTT9=
EXTT10=
PLAYORDER=
